<svg xmlns="http://www.w3.org/2000/svg" width="200" height="200" viewBox="0 0 200 200">
  <!-- Seamless Batik Parang Rusak tile — diagonal S-curves -->
  <defs>
    <pattern id="parang" x="0" y="0" width="200" height="200" patternUnits="userSpaceOnUse">
      <!-- Row 1 of diagonal S-curves -->
      <path d="M-10,10 C0,-5 20,-5 30,10 S60,25 50,40 C40,55 20,55 10,40 S-20,25 -10,10Z" fill="none" stroke="#fff" stroke-width="1.2" opacity="0.5"/>
      <path d="M90,10 C100,-5 120,-5 130,10 S160,25 150,40 C140,55 120,55 110,40 S80,25 90,10Z" fill="none" stroke="#fff" stroke-width="1.2" opacity="0.5"/>
      <path d="M190,10 C200,-5 220,-5 230,10 S260,25 250,40 C240,55 220,55 210,40 S180,25 190,10Z" fill="none" stroke="#fff" stroke-width="1.2" opacity="0.5"/>

      <!-- Row 2 offset -->
      <path d="M40,60 C50,45 70,45 80,60 S110,75 100,90 C90,105 70,105 60,90 S30,75 40,60Z" fill="none" stroke="#fff" stroke-width="1.2" opacity="0.5"/>
      <path d="M140,60 C150,45 170,45 180,60 S210,75 200,90 C190,105 170,105 160,90 S130,75 140,60Z" fill="none" stroke="#fff" stroke-width="1.2" opacity="0.5"/>
      <path d="M-60,60 C-50,45 -30,45 -20,60 S10,75 0,90 C-10,105 -30,105 -40,90 S-70,75 -60,60Z" fill="none" stroke="#fff" stroke-width="1.2" opacity="0.5"/>

      <!-- Row 3 -->
      <path d="M-10,110 C0,95 20,95 30,110 S60,125 50,140 C40,155 20,155 10,140 S-20,125 -10,110Z" fill="none" stroke="#fff" stroke-width="1.2" opacity="0.5"/>
      <path d="M90,110 C100,95 120,95 130,110 S160,125 150,140 C140,155 120,155 110,140 S80,125 90,110Z" fill="none" stroke="#fff" stroke-width="1.2" opacity="0.5"/>
      <path d="M190,110 C200,95 220,95 230,110 S260,125 250,140 C240,155 220,155 210,140 S180,125 190,110Z" fill="none" stroke="#fff" stroke-width="1.2" opacity="0.5"/>

      <!-- Row 4 offset -->
      <path d="M40,160 C50,145 70,145 80,160 S110,175 100,190 C90,205 70,205 60,190 S30,175 40,160Z" fill="none" stroke="#fff" stroke-width="1.2" opacity="0.5"/>
      <path d="M140,160 C150,145 170,145 180,160 S210,175 200,190 C190,205 170,205 160,190 S130,175 140,160Z" fill="none" stroke="#fff" stroke-width="1.2" opacity="0.5"/>
      <path d="M-60,160 C-50,145 -30,145 -20,160 S10,175 0,190 C-10,205 -30,205 -40,190 S-70,175 -60,160Z" fill="none" stroke="#fff" stroke-width="1.2" opacity="0.5"/>

      <!-- Diagonal connecting lines -->
      <line x1="0" y1="0" x2="200" y2="200" stroke="#fff" stroke-width="0.4" opacity="0.25"/>
      <line x1="100" y1="0" x2="300" y2="200" stroke="#fff" stroke-width="0.4" opacity="0.25"/>
      <line x1="-100" y1="0" x2="100" y2="200" stroke="#fff" stroke-width="0.4" opacity="0.25"/>
      <line x1="50" y1="0" x2="250" y2="200" stroke="#fff" stroke-width="0.4" opacity="0.25"/>
      <line x1="-50" y1="0" x2="150" y2="200" stroke="#fff" stroke-width="0.4" opacity="0.25"/>

      <!-- Small decorative dots at intersections -->
      <circle cx="10" cy="25" r="2" fill="#fff" opacity="0.3"/>
      <circle cx="110" cy="25" r="2" fill="#fff" opacity="0.3"/>
      <circle cx="60" cy="75" r="2" fill="#fff" opacity="0.3"/>
      <circle cx="160" cy="75" r="2" fill="#fff" opacity="0.3"/>
      <circle cx="10" cy="125" r="2" fill="#fff" opacity="0.3"/>
      <circle cx="110" cy="125" r="2" fill="#fff" opacity="0.3"/>
      <circle cx="60" cy="175" r="2" fill="#fff" opacity="0.3"/>
      <circle cx="160" cy="175" r="2" fill="#fff" opacity="0.3"/>
    </pattern>
  </defs>
  <rect width="200" height="200" fill="url(#parang)"/>
</svg>
